<?xml version="1.0" encoding="UTF-8" standalone="no"?>
<svg
   xmlns:dc="http://purl.org/dc/elements/1.1/"
   xmlns:cc="http://creativecommons.org/ns#"
   xmlns:rdf="http://www.w3.org/1999/02/22-rdf-syntax-ns#"
   xmlns:svg="http://www.w3.org/2000/svg"
   xmlns="http://www.w3.org/2000/svg"
   version="1.2"
   x="0in"
   y="0in"
   width="0.40000001in"
   height="0.1in"
   viewBox="0 0 3999.9999 1000"
   id="svg2">
  <metadata
     id="metadata57">
    <rdf:RDF>
      <cc:Work
         rdf:about="">
        <dc:format>image/svg+xml</dc:format>
        <dc:type
           rdf:resource="http://purl.org/dc/dcmitype/StillImage" />
        <dc:title></dc:title>
      </cc:Work>
    </rdf:RDF>
  </metadata>
  <defs
     id="defs55" />
  <g
     id="breadboard">
    <polygon
       style="fill:#404040"
       points="0,782.747 217.113,1000 782.747,1000 1000,782.747 1000,217.113 782.747,0 217.113,0 0,217.113 "
       id="polygon5" />
    <rect
       style="fill:none"
       id="connector0pin"
       x="306.15302"
       y="306.15302"
       width="387.69199"
       height="387.69199" />
    <rect
       style="fill:none"
       id="connector0terminal"
       x="349.76999"
       y="342.96399"
       width="300.59698"
       height="314.20999" />
    <rect
       style="fill:#8d8c8c"
       x="340.46301"
       y="340.46301"
       width="319.211"
       height="319.211"
       id="rect9" />
    <rect
       style="fill:#8c8663"
       x="417.974"
       y="417.974"
       width="164.189"
       height="164.189"
       id="rect11" />
    <polygon
       style="fill:#b8af82"
       points="582.025,417.974 659.674,340.463 340.463,340.463 417.974,417.974 "
       id="polygon13" />
    <polygon
       style="fill:#80795b"
       points="659.674,340.463 659.674,659.674 582.025,582.025 582.025,417.974 "
       id="polygon15" />
    <polygon
       style="fill:#5e5b43"
       points="659.674,659.674 340.463,659.674 417.974,582.025 582.025,582.025 "
       id="polygon17" />
    <polygon
       style="fill:#9a916c"
       points="417.974,582.025 340.463,659.674 340.463,340.463 417.974,417.974 "
       id="polygon19" />
    <polygon
       style="fill:#404040"
       points="1000,782.747 1217.11,1000 1782.75,1000 2000,782.747 2000,217.113 1782.75,0 1217.11,0 1000,217.113 "
       id="polygon21" />
    <rect
       style="fill:none"
       id="connector1pin"
       x="1306.15"
       y="306.15302"
       width="387.69199"
       height="387.69199" />
    <rect
       style="fill:none"
       id="connector1terminal"
       x="1349.77"
       y="342.96399"
       width="300.59698"
       height="314.20999" />
    <rect
       style="fill:#8d8c8c"
       x="1340.46"
       y="340.46301"
       width="319.211"
       height="319.211"
       id="rect25" />
    <rect
       style="fill:#8c8663"
       x="1417.97"
       y="417.974"
       width="164.189"
       height="164.189"
       id="rect27" />
    <polygon
       style="fill:#b8af82"
       points="1582.03,417.974 1659.67,340.463 1340.46,340.463 1417.97,417.974 "
       id="polygon29" />
    <polygon
       style="fill:#80795b"
       points="1659.67,340.463 1659.67,659.674 1582.03,582.025 1582.03,417.974 "
       id="polygon31" />
    <polygon
       style="fill:#5e5b43"
       points="1659.67,659.674 1340.46,659.674 1417.97,582.025 1582.03,582.025 "
       id="polygon33" />
    <polygon
       style="fill:#9a916c"
       points="1417.97,582.025 1340.46,659.674 1340.46,340.463 1417.97,417.974 "
       id="polygon35" />
    <polygon
       style="fill:#404040"
       points="2000,782.747 2217.11,1000 2782.75,1000 3000,782.747 3000,217.113 2782.75,0 2217.11,0 2000,217.113 "
       id="polygon37" />
    <rect
       style="fill:none"
       id="connector2pin"
       x="2306.1499"
       y="306.15302"
       width="387.69199"
       height="387.69199" />
    <rect
       style="fill:none"
       id="connector2terminal"
       x="2349.77"
       y="342.96399"
       width="300.59698"
       height="314.20999" />
    <rect
       style="fill:#8d8c8c"
       x="2340.46"
       y="340.46301"
       width="319.211"
       height="319.211"
       id="rect41" />
    <rect
       style="fill:#8c8663"
       x="2417.97"
       y="417.974"
       width="164.189"
       height="164.189"
       id="rect43" />
    <polygon
       style="fill:#b8af82"
       points="2582.03,417.974 2659.67,340.463 2340.46,340.463 2417.97,417.974 "
       id="polygon45" />
    <polygon
       style="fill:#80795b"
       points="2659.67,340.463 2659.67,659.674 2582.03,582.025 2582.03,417.974 "
       id="polygon47" />
    <polygon
       style="fill:#5e5b43"
       points="2659.67,659.674 2340.46,659.674 2417.97,582.025 2582.03,582.025 "
       id="polygon49" />
    <polygon
       style="fill:#9a916c"
       points="2417.97,582.025 2340.46,659.674 2340.46,340.463 2417.97,417.974 "
       id="polygon51" />
    <polygon
       style="fill:#404040"
       points="2782.75,0 2217.11,0 2000,217.113 2000,782.747 2217.11,1000 2782.75,1000 3000,782.747 3000,217.113 "
       id="polygon37-9"
       transform="translate(1000)" />
    <rect
       style="fill:none;stroke-width:1"
       id="connector3pin"
       x="3306.1497"
       y="306.15311"
       width="387.69196"
       height="387.69196" />
    <rect
       style="fill:none;stroke-width:1"
       id="connector3terminal"
       x="3349.7698"
       y="342.96414"
       width="300.59695"
       height="314.20996" />
    <rect
       style="fill:#8d8c8c;stroke-width:1"
       x="3340.46"
       y="340.46317"
       width="319.21097"
       height="319.21097"
       id="rect41-1" />
    <rect
       style="fill:#8c8663;stroke-width:1"
       x="3417.9697"
       y="417.97415"
       width="164.18898"
       height="164.18898"
       id="rect43-8" />
    <polygon
       style="fill:#b8af82"
       points="2659.67,340.463 2340.46,340.463 2417.97,417.974 2582.03,417.974 "
       id="polygon45-5"
       transform="translate(1000)" />
    <polygon
       style="fill:#80795b"
       points="2659.67,659.674 2582.03,582.025 2582.03,417.974 2659.67,340.463 "
       id="polygon47-5"
       transform="translate(1000)" />
    <polygon
       style="fill:#5e5b43"
       points="2340.46,659.674 2417.97,582.025 2582.03,582.025 2659.67,659.674 "
       id="polygon49-3"
       transform="translate(1000)" />
    <polygon
       style="fill:#9a916c"
       points="2340.46,659.674 2340.46,340.463 2417.97,417.974 2417.97,582.025 "
       id="polygon51-6"
       transform="translate(1000)" />
  </g>
</svg>
