<?xml version="1.0" encoding="UTF-8" standalone="no"?>
<svg
   xmlns:dc="http://purl.org/dc/elements/1.1/"
   xmlns:cc="http://creativecommons.org/ns#"
   xmlns:rdf="http://www.w3.org/1999/02/22-rdf-syntax-ns#"
   xmlns:svg="http://www.w3.org/2000/svg"
   xmlns="http://www.w3.org/2000/svg"
   xml:space="preserve"
   enable-background="new 0 0 33.046 39.852"
   viewBox="0 0 33.046 39.852"
   height="39.852px"
   width="33.046px"
   y="0px"
   x="0px"
   id="svg2"
   version="1.1"><metadata
     id="metadata7546"><rdf:RDF><cc:Work
         rdf:about=""><dc:format>image/svg+xml</dc:format><dc:type
           rdf:resource="http://purl.org/dc/dcmitype/StillImage" /><dc:title></dc:title></cc:Work></rdf:RDF></metadata><defs
     id="defs7544" /><rect
     height="2.5"
     width="2.834"
     fill="none"
     y="36.422"
     x="8.215"
     id="connector0pin" /><rect
     height="2.269"
     width="1.418"
     fill="none"
     y="36.538"
     x="8.922"
     id="connector0terminal" /><rect
     height="2.25"
     width="2.835"
     fill="none"
     y="36.501"
     x="15.424"
     id="connector1pin" /><rect
     height="2.041"
     width="1.418"
     fill="none"
     y="36.605"
     x="16.132"
     id="connector1terminal" /><rect
     height="2.25"
     width="2.836"
     fill="none"
     y="36.626"
     x="22.736"
     id="connector2pin" /><rect
     height="2.041"
     width="1.418"
     fill="none"
     y="36.73"
     x="23.445"
     id="connector2terminal" /><g
     id="breadboard"><path
       id="path7494"
       d="M31.203,33.371c0,1.563-1.271,2.835-2.834,2.835H5.453   c-1.565,0-2.834-1.271-2.834-2.835V5.875c0-1.564,1.269-2.835,2.834-2.835h22.916c1.564,0,2.834,1.271,2.834,2.835V33.371   L31.203,33.371z"
       stroke-width="0.8826"
       stroke="#000000" /><rect
       id="rect7496"
       height="4.416"
       width="30.833"
       fill="#CCCCCC"
       y="17.415"
       x="1.452" /><rect
       id="rect7498"
       height="2.666"
       width="1.734"
       fill="#CCCCCC"
       y="36.197"
       x="23.187" /><rect
       id="rect7500"
       height="2.666"
       width="1.735"
       fill="#CCCCCC"
       y="36.197"
       x="15.986" /><rect
       id="rect7502"
       height="2.666"
       width="1.735"
       fill="#CCCCCC"
       y="36.197"
       x="8.786" /><g
       id="g7506"><path
         id="path7504"
         d="M27.648,35.209H4.733c-1.806,0-3.275-1.471-3.275-3.277V4.435c0-1.806,1.469-3.275,3.275-3.275h22.915    c1.806,0,3.275,1.469,3.275,3.275v27.497C30.923,33.739,29.454,35.209,27.648,35.209z M4.733,2.042    c-1.319,0-2.393,1.073-2.393,2.393v27.497c0,1.32,1.073,2.395,2.393,2.395h22.915c1.319,0,2.393-1.074,2.393-2.395V4.435    c0-1.319-1.073-2.393-2.393-2.393H4.733z" /></g><polygon
       id="polygon7508"
       points="31.703,6.956 31.703,32.29 30.982,30.852 1.399,30.852 1.399,5.517 30.982,5.517  "
       fill="#CCCCCC" /><polygon
       id="polygon7510"
       points="32.287,17.415 32.287,21.831 31.566,20.392 1.399,20.31 1.385,21.811 0.732,20.392 0.732,15.976    31.566,15.976  "
       fill="#ABABAB" /><path
       id="path7512"
       d="M30.267,31.689c0,1.539-1.246,2.785-2.785,2.785H4.971c-1.538,0-2.785-1.246-2.785-2.785V4.678   c0-1.537,1.247-2.785,2.785-2.785h22.511c1.537,0,2.784,1.248,2.784,2.785L30.267,31.689L30.267,31.689z"
       fill="#ABABAB" /><circle
       id="circle7514"
       r="1.917"
       cy="31.429"
       cx="27.386" /><circle
       id="circle7516"
       r="1.917"
       cy="31.429"
       cx="5.065" /><circle
       id="circle7518"
       r="1.917"
       cy="4.787"
       cx="27.386" /><circle
       id="circle7520"
       r="1.917"
       cy="4.787"
       cx="5.065" /><circle
       id="circle7522"
       r="8.125"
       cy="18.162"
       cx="16.194"
       stroke="#777777"
       fill="#878787" /><circle
       id="circle7524"
       r="6.5"
       cy="18.162"
       cx="16.194"
       fill="#878787" /><circle
       id="circle7526"
       r="6.5"
       cy="16.722"
       cx="15.476"
       fill="#3A3A3A" /><polygon
       id="polygon7528"
       points="6.731,13.768 9.862,19.923 21.428,14.111 18.394,8.098  "
       fill="#3A3A3A" /><path
       id="path7530"
       d="M13.37,20.268l7.149-7.957c0.122,0.496,0.109,0.963,0.109,1.498c0,3.59-2.91,6.502-6.501,6.502   C13.871,20.312,13.619,20.297,13.37,20.268z"
       fill="#595959" /><path
       id="path7532"
       d="M13.364,20.309c-3.275-0.335-5.831-3.104-5.831-6.469c0-3.59,2.91-6.5,6.5-6.5   c3.122,0,5.728,2.198,6.357,5.13L13.364,20.309z"
       fill="#3A3A3A" /><path
       id="path7534"
       d="M11.924,17.429c-3.275-0.335-5.831-3.105-5.831-6.469c0-3.59,2.91-6.5,6.5-6.5   c3.122,0,5.729,2.198,6.358,5.13L11.924,17.429z"
       fill="#3A3A3A" /><path
       id="path7536"
       d="M30.923,4.701c0-1.806-1.47-3.275-3.275-3.275H4.733c-1.806,0-3.275,1.469-3.275,3.275V4.435   c0-1.806,1.469-3.275,3.275-3.275h22.915c1.806,0,3.275,1.469,3.275,3.275"
       fill="#FFFFFF"
       opacity="0.2" /><polygon
       id="polygon7538"
       points="11.924,17.429 13.37,20.268 20.521,12.312 19.066,9.493  "
       fill="#828282" /></g></svg>