<?xml version="1.0" encoding="utf-8"?>
<!-- Generator: Adobe Illustrator 16.0.0, SVG Export Plug-In . SVG Version: 6.00 Build 0)  -->
<!DOCTYPE svg PUBLIC "-//W3C//DTD SVG 1.1//EN" "http://www.w3.org/Graphics/SVG/1.1/DTD/svg11.dtd">
<svg version="1.1" id="Layer_1" xmlns:svg="http://www.w3.org/2000/svg"
	 xmlns="http://www.w3.org/2000/svg" xmlns:xlink="http://www.w3.org/1999/xlink" x="0px" y="0px" width="43.8px" height="58.464px"
	 viewBox="0 0 43.8 58.464" enable-background="new 0 0 43.8 58.464" xml:space="preserve">
<g id="schematic">
	<polygon fill="#FFFFFF" stroke="#000000" stroke-width="0.9" stroke-linecap="round" points="36.35,0.432 7.55,0.432 
		   7.55,58.032 36.35,58.032 	"/>
	<line fill="none" stroke="#000000" stroke-width="0.5" stroke-linecap="round" x1="29.15" y1="22.032" x2="25.55" y2="34.632"/>
	<line fill="none" stroke="#000000" stroke-width="0.5" stroke-linecap="round" x1="29.15" y1="14.832" x2="29.15" y2="22.032"/>
	<line fill="none" stroke="#000000" stroke-width="0.5" stroke-linecap="round" x1="29.15" y1="43.632" x2="29.15" y2="36.432"/>
	<line fill="none" stroke="#000000" stroke-width="0.5" stroke-linecap="round" x1="29.15" y1="43.632" x2="36.35" y2="43.632"/>
	<line fill="none" stroke="#000000" stroke-width="0.5" stroke-linecap="round" x1="29.15" y1="14.832" x2="36.35" y2="14.832"/>
	<line fill="none" stroke="#000000" stroke-width="0.5" stroke-linecap="round" x1="7.55" y1="14.832" x2="14.75" y2="14.832"/>
	<line fill="none" stroke="#000000" stroke-width="0.5" stroke-linecap="round" x1="14.75" y1="29.232" x2="7.55" y2="29.232"/>
	<line fill="none" stroke="#000000" stroke-width="0.5" stroke-linecap="round" x1="14.75" y1="43.632" x2="7.55" y2="43.632"/>
	<line fill="none" stroke="#000000" stroke-width="0.5" stroke-linecap="round" x1="14.75" y1="14.832" x2="14.75" y2="18.432"/>
	<line fill="none" stroke="#000000" stroke-width="0.5" stroke-linecap="round" x1="14.75" y1="29.232" x2="14.75" y2="25.632"/>
	<line fill="none" stroke="#000000" stroke-width="0.5" stroke-linecap="round" x1="14.75" y1="29.232" x2="14.75" y2="32.832"/>
	<line fill="none" stroke="#000000" stroke-width="0.5" stroke-linecap="round" x1="14.75" y1="43.632" x2="14.75" y2="40.032"/>
	<line fill="none" stroke="#000000" stroke-width="0.5" stroke-linecap="round" x1="14.75" y1="18.432" x2="17.63" y2="24.912"/>
	<line fill="none" stroke="#000000" stroke-width="0.5" stroke-linecap="round" x1="14.75" y1="40.032" x2="17.63" y2="33.552"/>
	
	<circle fill="none" stroke="#000000" stroke-width="0.9" cx="14.75" cy="40.032" r="0.72"/>
	<circle fill="none" stroke="#000000" stroke-width="0.9" cx="14.75" cy="32.832" r="0.72"/>
	<circle fill="none" stroke="#000000" stroke-width="0.9" cx="14.75" cy="25.632" r="0.72"/>
	<circle fill="none" stroke="#000000" stroke-width="0.9" cx="14.75" cy="18.432" r="0.72"/>
	<circle fill="none" stroke="#000000" stroke-width="0.9" cx="29.15" cy="22.032" r="0.72"/>
	<circle fill="none" stroke="#000000" stroke-width="0.9" cx="29.15" cy="36.432" r="0.72"/>
	
		<line id="connector0pin" fill="none" stroke="#787878" stroke-width="0.75" stroke-linecap="round" x1="0.35" y1="14.832" x2="7.55" y2="14.832"/>
	<!-- <polygon id="connector0terminal" fill="none" points="0.35,14.832 0.35,14.832 0.35,14.832 	"/> -->
	<rect class='terminal' x='0.35' y='14.832' width='0.246944' height='0.246944' fill='none' stroke='none' stroke-width='0' id='connector0terminal' />
	<text transform="matrix(1 0 0 1 3.262 13.7817)" fill="#8C8C8C" font-family="'DroidSans'" font-size="2.5">1</text>
	
		<line id="connector1pin" fill="none" stroke="#787878" stroke-width="0.75" stroke-linecap="round" x1="0.35" y1="29.232" x2="7.55" y2="29.232"/>
	<!-- <polygon id="connector1terminal" fill="none" points="0.35,29.232 0.35,29.232 0.35,29.232 	"/> -->
	<rect class='terminal' x='0.35' y='29.232' width='0.246944' height='0.246944' fill='none' stroke='none' stroke-width='0' id='connector1terminal' />
	<text transform="matrix(1 0 0 1 3.262 28.1821)" fill="#8C8C8C" font-family="'DroidSans'" font-size="2.5">2</text>
	
		<line id="connector2pin" fill="none" stroke="#787878" stroke-width="0.75" stroke-linecap="round" x1="0.35" y1="43.632" x2="7.55" y2="43.632"/>
	<!-- <polygon id="connector2terminal" fill="none" points="0.35,43.632 0.35,43.632 0.35,43.632 	"/> -->
	<rect class='terminal' x='0.35' y='43.632' width='0.246944' height='0.246944' fill='none' stroke='none' stroke-width='0' id='connector2terminal' />
	<text transform="matrix(1 0 0 1 3.262 42.5825)" fill="#8C8C8C" font-family="'DroidSans'" font-size="2.5">3</text>
	
		<line id="connector3pin" fill="none" stroke="#787878" stroke-width="0.75" stroke-linecap="round" x1="36.35" y1="14.832" x2="43.55" y2="14.832"/>
	<!-- <polygon id="connector3terminal" fill="none" points="43.55,14.832 43.55,14.832 43.55,14.832 	"/> -->
	<rect class='terminal' x='43.55' y='14.832' width='0.246944' height='0.246944' fill='none' stroke='none' stroke-width='0' id='connector3terminal' />
	<text transform="matrix(1 0 0 1 39.500 13.7817)" fill="#8C8C8C" font-family="'DroidSans'" font-size="2.5">4</text>
	
		<line id="connector4pin" fill="none" stroke="#787878" stroke-width="0.75" stroke-linecap="round" x1="36.35" y1="43.632" x2="43.55" y2="43.632"/>
	<!-- <polygon id="connector4terminal" fill="none" points="43.55,43.632 43.55,43.632 43.55,43.632 	"/> -->
	<rect class='terminal' x='43.55' y='43.632' width='0.246944' height='0.246944' fill='none' stroke='none' stroke-width='0' id='connector4terminal' />
	<text transform="matrix(1 0 0 1 39.500 42.5825)" fill="#8C8C8C" font-family="'DroidSans'" font-size="2.5">5</text>
	
	
</g>
</svg>
